<svg width="24" height="24" viewBox="0 0 24 24" fill="none" xmlns="http://www.w3.org/2000/svg">
<g clip-path="url(#clip0_743_9872)">
<path d="M14.8278 12L23.4138 3.41396C23.7782 3.03676 23.9797 2.53155 23.9752 2.00716C23.9706 1.48276 23.7603 0.981139 23.3895 0.610323C23.0187 0.239506 22.517 0.0291686 21.9926 0.0246117C21.4682 0.0200549 20.963 0.221644 20.5858 0.58596L11.9998 9.17196L3.41384 0.58596C3.03663 0.221644 2.53143 0.0200549 2.00704 0.0246117C1.48264 0.0291686 0.981017 0.239506 0.610201 0.610323C0.239384 0.981139 0.0290465 1.48276 0.0244897 2.00716C0.0199328 2.53155 0.221522 3.03676 0.585838 3.41396L9.17184 12L0.585838 20.586C0.221522 20.9632 0.0199328 21.4684 0.0244897 21.9928C0.0290465 22.5172 0.239384 23.0188 0.610201 23.3896C0.981017 23.7604 1.48264 23.9708 2.00704 23.9753C2.53143 23.9799 3.03663 23.7783 3.41384 23.414L11.9998 14.828L20.5858 23.414C20.963 23.7783 21.4682 23.9799 21.9926 23.9753C22.517 23.9708 23.0187 23.7604 23.3895 23.3896C23.7603 23.0188 23.9706 22.5172 23.9752 21.9928C23.9797 21.4684 23.7782 20.9632 23.4138 20.586L14.8278 12Z" fill="#000000"/>
</g>
<defs>
<clipPath id="clip0_743_9872">
<rect width="24" height="24" fill="white"/>
</clipPath>
</defs>
</svg>
