<svg width="329" height="44" viewBox="0 0 329 44" fill="none" xmlns="http://www.w3.org/2000/svg">
<path d="M50.0403 1.66996C51.4044 1.66996 52.3982 1.90379 53.0217 2.37145C53.6842 2.80015 54.0155 3.50165 54.0155 4.47595C54.0155 5.21643 53.7622 6.46354 53.2555 8.21729L43.6684 42.8246C41.9536 43.4872 40.3947 43.8184 38.9917 43.8184C36.6534 43.8184 35.2894 43.1364 34.8996 41.7724L27.9431 14.7062L20.5189 42.8246C18.7651 43.4872 17.2452 43.8184 15.9591 43.8184C13.309 43.8184 11.8476 43.1364 11.5748 41.7724L2.68908 6.46354C2.53319 5.91793 2.29936 5.31386 1.98758 4.65133C1.67581 3.9888 1.32506 3.44319 0.935333 3.0145C1.94861 2.00122 3.35161 1.49458 5.14433 1.49458C7.75547 1.49458 9.2559 2.39094 9.64563 4.18366L16.9529 38.031L23.9095 10.8479C24.0264 10.1854 24.0848 9.6008 24.0848 9.09416C24.0848 8.11986 23.9289 7.3599 23.6172 6.81429C24.2797 6.46354 25.0786 6.19073 26.014 5.99587C26.9493 5.80101 27.8067 5.70358 28.5861 5.70358C29.5215 5.70358 30.3009 5.85947 30.9245 6.17125C31.587 6.48302 31.9962 6.9312 32.1521 7.51579L39.9855 37.9726L46.4159 6.58046C46.4549 6.26868 46.5134 5.85947 46.5913 5.35283C46.7082 4.84619 46.7667 4.43698 46.7667 4.12521C46.7667 3.38473 46.5913 2.78066 46.2405 2.313C47.5266 1.8843 48.7932 1.66996 50.0403 1.66996ZM86.4727 35.9265C87.0962 36.1993 87.6029 36.628 87.9926 37.2126C88.4213 37.7582 88.6356 38.4013 88.6356 39.1417C88.6356 40.3889 88.09 41.4801 86.9988 42.4154C85.9465 43.3118 84.563 43.76 82.8483 43.76C81.0945 43.76 79.672 43.2533 78.5808 42.24C77.5285 41.2268 76.4178 39.6094 75.2487 37.388L70.1628 27.6839L61.4525 41.6555C61.0238 42.318 60.5367 42.8246 59.991 43.1754C59.4844 43.5261 58.8024 43.7015 57.945 43.7015C56.8148 43.7015 55.9574 43.3702 55.3728 42.7077C54.7882 42.0062 54.418 40.9345 54.2621 39.4925C55.3533 39.1807 56.3082 38.6546 57.1266 37.9141C57.984 37.1347 58.8803 36.1019 59.8157 34.8158L67.8829 23.2995L60.8095 10.0295C60.3808 9.28903 59.991 8.7629 59.6403 8.45112C59.2895 8.13934 58.8998 7.98345 58.4711 7.98345C58.0035 7.98345 57.5942 8.13934 57.2435 8.45112C56.8927 8.7629 56.6784 9.15262 56.6005 9.62029C55.9769 9.30851 55.4703 8.87981 55.0805 8.3342C54.6908 7.74962 54.496 7.06761 54.496 6.28816C54.496 5.04105 54.9441 3.9888 55.8405 3.13141C56.7758 2.23505 58.1593 1.78687 59.991 1.78687C61.8227 1.78687 63.3037 2.29351 64.4339 3.30679C65.5641 4.32007 66.7137 5.93741 67.8829 8.15883L72.5011 17.2783L80.393 3.83291C81.1335 2.42991 82.2832 1.72841 83.842 1.72841C84.9722 1.72841 85.8296 2.07916 86.4142 2.78066C86.9988 3.44319 87.369 4.51493 87.5249 5.99587C86.3947 6.34662 85.3814 6.91172 84.4851 7.69116C83.6277 8.47061 82.7898 9.44491 81.9714 10.6141L74.5472 21.1366L82.3221 35.5173C82.6729 36.1799 83.0626 36.6865 83.4913 37.0372C83.92 37.388 84.3487 37.5634 84.7774 37.5634C85.1671 37.5634 85.5178 37.4075 85.8296 37.0957C86.1804 36.745 86.3947 36.3552 86.4727 35.9265ZM106.111 43.8184C101.005 43.8184 97.03 41.9867 94.1851 38.3233C91.3401 34.621 89.9176 29.3987 89.9176 22.6565C89.9176 15.9143 91.3791 10.7115 94.302 7.04812C97.2249 3.34576 101.317 1.49458 106.578 1.49458C108.722 1.49458 110.768 1.76738 112.716 2.313C114.704 2.85861 116.302 3.63805 117.51 4.65133C118.718 5.66461 119.322 6.83377 119.322 8.15883C119.322 9.25005 118.816 10.2049 117.802 11.0233C116.828 11.8417 115.464 12.2314 113.71 12.1925C113.087 6.77532 110.748 4.06675 106.695 4.06675C103.655 4.06675 101.375 5.60615 99.8555 8.68496C98.3746 11.7638 97.6341 16.4209 97.6341 22.6565C97.6341 28.8921 98.3551 33.5492 99.7971 36.628C101.278 39.7068 103.519 41.2462 106.52 41.2462C108.624 41.2462 110.378 40.4863 111.781 38.9664C113.184 37.4465 114.08 35.2056 114.47 32.2437C114.704 32.2047 115.074 32.1852 115.581 32.1852C116.906 32.1852 118.036 32.497 118.971 33.1205C119.907 33.7441 120.374 34.621 120.374 35.7512C120.374 37.388 119.692 38.8105 118.328 40.0186C116.964 41.2268 115.191 42.1621 113.009 42.8246C110.826 43.4872 108.527 43.8184 106.111 43.8184ZM129.162 43.8184C127.993 43.8184 127.038 43.4872 126.298 42.8246C125.557 42.1621 125.187 41.2657 125.187 40.1355L125.129 10.2633C125.129 7.41836 124.797 5.04105 124.135 3.13141C124.525 2.74169 125.07 2.39094 125.772 2.07916C126.473 1.76739 127.272 1.6115 128.169 1.6115C129.338 1.6115 130.293 1.94276 131.033 2.60529C131.812 3.22884 132.202 4.08623 132.202 5.17746V35.0497C132.202 38.1285 132.533 40.5253 133.196 42.24C132.806 42.6298 132.261 42.9805 131.559 43.2923C130.858 43.643 130.059 43.8184 129.162 43.8184ZM178.546 38.7325C179.053 40.2914 179.637 41.4411 180.3 42.1816C179.403 43.2338 178.039 43.76 176.208 43.76C175.077 43.76 174.123 43.5261 173.343 43.0585C172.603 42.5908 172.135 41.9088 171.94 41.0124L169.134 30.8407H155.455L153.292 38.8495C153.019 39.7848 152.883 40.6032 152.883 41.3047C152.883 42.0842 153.078 42.6492 153.467 43C152.181 43.5066 150.895 43.76 149.609 43.76C148.245 43.76 147.251 43.5261 146.628 43.0585C146.004 42.5908 145.692 41.8308 145.692 40.7786C145.692 39.9991 145.926 38.7715 146.394 37.0957L158.085 2.42991C160.19 1.76739 162.158 1.43612 163.99 1.43612C166.094 1.43612 167.38 2.21557 167.848 3.77446L178.546 38.7325ZM168.023 26.9824L162.178 5.70358L156.449 26.9824H168.023ZM210.067 37.7972C210.535 38.5377 210.769 39.2976 210.769 40.0771C210.769 41.1683 210.379 42.0647 209.6 42.7662C208.859 43.4287 207.807 43.76 206.443 43.76C204.65 43.76 203.267 43.1754 202.292 42.0062C201.357 40.7981 200.889 39.0443 200.889 36.745C199.252 41.4606 196.037 43.8184 191.244 43.8184C188.048 43.8184 185.71 42.9026 184.229 41.0709C182.787 39.2392 182.046 36.1799 182.007 31.8929V20.9027C182.007 17.9798 181.676 15.5636 181.013 13.6539C182.183 12.6406 183.508 12.134 184.989 12.134C186.158 12.134 187.113 12.4653 187.853 13.1278C188.594 13.7903 188.964 14.6867 188.964 15.8169V30.8407C188.964 34.2702 189.295 36.745 189.958 38.2649C190.62 39.7848 191.809 40.5447 193.524 40.5447C195.433 40.5447 196.992 39.3756 198.2 37.0372C199.447 34.6989 200.071 31.2694 200.071 26.7486C200.071 22.3447 200.012 19.4023 199.896 17.9214C199.779 16.4404 199.467 15.0179 198.96 13.6539C200.09 12.6406 201.415 12.134 202.935 12.134C204.066 12.134 205.001 12.5042 205.741 13.2447C206.521 13.9462 206.911 14.901 206.911 16.1092L206.969 35.5173C206.969 36.6086 207.086 37.388 207.32 37.8557C207.593 38.3233 207.982 38.5572 208.489 38.5572C209.229 38.5572 209.756 38.3038 210.067 37.7972ZM225.741 43.8184C221.143 43.8184 217.577 42.4544 215.044 39.7263C212.549 36.9593 211.302 33.0426 211.302 27.9762C211.302 23.0267 212.588 19.149 215.16 16.343C217.733 13.537 221.357 12.134 226.034 12.134C229.424 12.134 232.016 12.8355 233.809 14.2385C235.64 15.6415 236.556 17.4342 236.556 19.6167C236.556 21.0976 236.089 22.3057 235.153 23.2411C234.218 24.1374 233.029 24.5856 231.587 24.5856C230.847 24.5856 230.126 24.4882 229.424 24.2933C228.762 24.0595 228.255 23.7282 227.904 23.2995C229.035 22.4422 229.6 21.0197 229.6 19.0321C229.6 17.5122 229.21 16.4015 228.431 15.7C227.69 14.9985 226.696 14.6477 225.449 14.6477C223.384 14.6477 221.747 15.7194 220.539 17.8629C219.331 20.0064 218.726 23.0072 218.726 26.8655C218.726 31.1914 219.506 34.3677 221.065 36.3942C222.663 38.4208 224.904 39.434 227.787 39.434C229.853 39.434 231.607 38.9274 233.049 37.9141C234.491 36.9008 235.426 35.5563 235.855 33.8805C236.517 34.1533 236.849 34.7574 236.849 35.6927C236.849 36.1604 236.771 36.6865 236.615 37.2711C236.03 39.3366 234.764 40.954 232.815 42.1231C230.866 43.2533 228.508 43.8184 225.741 43.8184ZM248.934 13.0109C249.714 13.0109 250.922 12.9914 252.559 12.9524C254.196 12.8745 255.131 12.816 255.365 12.777L255.306 14.4723C255.267 15.0569 255.072 15.5051 254.722 15.8169C254.41 16.0897 254.001 16.2261 253.494 16.2261H248.174V18.0967V35.2835C248.174 37.349 249.071 38.3818 250.863 38.3818C251.37 38.3818 251.857 38.3233 252.325 38.2064C252.832 38.0505 253.143 37.8167 253.26 37.5049C253.806 38.2064 254.079 38.9664 254.079 39.7848C254.079 40.915 253.533 41.8308 252.442 42.5323C251.351 43.2338 249.909 43.5846 248.116 43.5846C245.933 43.5846 244.238 42.9026 243.03 41.5385C241.861 40.1745 241.276 38.2844 241.276 35.8681V16.2261H240.399C238.802 16.2261 237.632 16.2845 236.892 16.4015L236.95 14.7062C236.989 14.1606 237.165 13.7513 237.476 13.4785C237.827 13.1668 238.256 13.0109 238.763 13.0109H241.276V8.80187C241.276 7.67168 241.647 6.7948 242.387 6.17125C243.127 5.50872 244.082 5.17746 245.251 5.17746C246.148 5.17746 246.927 5.33334 247.59 5.64512C248.252 5.9569 248.778 6.30765 249.168 6.69737C248.662 8.72393 248.35 10.8284 248.233 13.0109H248.934ZM261.948 8.86033C260.818 8.86033 259.843 8.47061 259.025 7.69116C258.245 6.91172 257.856 5.9569 257.856 4.8267C257.856 3.65754 258.245 2.68323 259.025 1.90379C259.843 1.12434 260.818 0.73462 261.948 0.73462C263.078 0.73462 264.033 1.12434 264.812 1.90379C265.631 2.68323 266.04 3.65754 266.04 4.8267C266.04 5.9569 265.631 6.91172 264.812 7.69116C264.033 8.47061 263.078 8.86033 261.948 8.86033ZM265.689 35.0497C265.689 38.1285 266.02 40.5253 266.683 42.24C266.293 42.6298 265.747 42.9805 265.046 43.2923C264.383 43.643 263.604 43.8184 262.708 43.8184C261.616 43.8184 260.701 43.4872 259.96 42.8246C259.22 42.1621 258.849 41.2657 258.849 40.1355L258.791 20.8443C258.791 17.9603 258.46 15.5636 257.797 13.6539C258.927 12.6406 260.213 12.134 261.655 12.134C262.825 12.134 263.76 12.4653 264.461 13.1278C265.202 13.7513 265.572 14.6282 265.572 15.7584L265.689 35.0497ZM283.551 43.8184C279.069 43.8184 275.581 42.4349 273.087 39.6679C270.632 36.8619 269.404 32.9647 269.404 27.9762C269.404 22.9878 270.632 19.11 273.087 16.343C275.581 13.537 279.069 12.134 283.551 12.134C287.994 12.134 291.443 13.537 293.898 16.343C296.393 19.11 297.64 22.9878 297.64 27.9762C297.64 32.9647 296.393 36.8619 293.898 39.6679C291.443 42.4349 287.994 43.8184 283.551 43.8184ZM283.551 41.3047C287.955 41.3047 290.157 36.8619 290.157 27.9762C290.157 19.0905 287.955 14.6477 283.551 14.6477C279.069 14.6477 276.829 19.0905 276.829 27.9762C276.829 36.8619 279.069 41.3047 283.551 41.3047ZM327.374 35.0497C327.491 38.2844 327.861 40.6812 328.485 42.24C327.277 43.2923 325.932 43.8184 324.451 43.8184C323.282 43.8184 322.327 43.4872 321.587 42.8246C320.846 42.1621 320.476 41.2657 320.476 40.1355V25.0533C320.437 21.8576 320.067 19.4997 319.365 17.9798C318.703 16.4599 317.475 15.7 315.682 15.7C313.734 15.7 312.116 16.8496 310.83 19.149C309.544 21.4094 308.901 24.7415 308.901 29.1454C308.901 33.5882 308.96 36.5501 309.077 38.031C309.193 39.512 309.525 40.9345 310.07 42.2985C309.642 42.6882 309.077 43.039 308.375 43.3508C307.713 43.6625 306.972 43.8184 306.154 43.8184C304.945 43.8184 303.952 43.4677 303.172 42.7662C302.432 42.0257 302.062 41.0514 302.062 39.8432V20.4351C302.023 19.3439 301.886 18.5644 301.652 18.0967C301.418 17.6291 301.029 17.3952 300.483 17.3952C299.743 17.3952 299.236 17.6486 298.963 18.1552C298.496 17.3758 298.262 16.5963 298.262 15.8169C298.262 14.7256 298.632 13.8488 299.372 13.1862C300.152 12.5237 301.224 12.1925 302.588 12.1925C304.341 12.1925 305.686 12.777 306.621 13.9462C307.596 15.0764 308.102 16.8107 308.141 19.149C308.96 16.8886 310.187 15.1543 311.824 13.9462C313.461 12.7381 315.507 12.134 317.962 12.134C321.158 12.134 323.516 13.1278 325.036 15.1154C326.595 17.103 327.374 20.0648 327.374 24.001V35.0497Z" fill="#FF4B23"/>
</svg>
